<svg width="15" height="22" viewBox="0 0 15 22" fill="none" xmlns="http://www.w3.org/2000/svg">
<path d="M0.0359599 21.4979L0 7.70727C0 7.31471 0.31465 7.00006 0.707212 7.00006L14.5008 7.03602C14.9444 7.03602 15.1661 7.57242 14.8545 7.88707L11.1056 11.6359C11.0127 11.7288 10.8869 11.7797 10.755 11.7797L5.70265 11.7678C5.18423 11.7678 4.76769 12.1843 4.76769 12.7027L4.77968 17.7551C4.77968 17.8869 4.72873 18.0128 4.63584 18.1057L0.887012 21.8545C0.575359 22.1662 0.0389566 21.9444 0.0359599 21.5009V21.4979Z" fill="#1E1E1E"/>
<path d="M8.70015 0L5.29985 2.63886e-06C4.58196 2.59753e-06 4 0.581964 4 1.29986L4.00003 4.70012C4.00003 5.41801 4.58198 5.99997 5.29988 5.99997L8.70014 6C9.41801 5.99997 9.99997 5.41801 10 4.70015L10 1.29985C10 0.581958 9.41804 4.13328e-08 8.70015 0Z" fill="#E7B339"/>
</svg>
